<svg id="decoration" enable-background="new 0 0 300 300" height="512" viewBox="0 0 300 300" width="512" xmlns="http://www.w3.org/2000/svg"><g><path d="m63.551 48.422c2.209 0 4-1.791 4-4v-8c0-2.209-1.791-4-4-4s-4 1.791-4 4v8c0 2.209 1.791 4 4 4z"/><path d="m63.551 56.422c-2.209 0-4 1.791-4 4v8c0 2.209 1.791 4 4 4s4-1.791 4-4v-8c0-2.209-1.791-4-4-4z"/><path d="m59.551 52.422c0-2.209-1.791-4-4-4h-8c-2.209 0-4 1.791-4 4s1.791 4 4 4h8c2.209 0 4-1.791 4-4z"/><path d="m71.551 56.422h8c2.209 0 4-1.791 4-4s-1.791-4-4-4h-8c-2.209 0-4 1.791-4 4s1.791 4 4 4z"/><path d="m93.319 118.105c-5.504-5.5-15.117-5.502-20.625.002-5.686 5.688-5.686 14.941.002 20.631 2.842 2.84 6.576 4.26 10.311 4.26 3.736 0 7.471-1.42 10.312-4.26.002 0 .002-.002.002-.002l7.486-7.486c1.562-1.562 1.562-4.094 0-5.656zm-5.652 14.973c-2.568 2.566-6.748 2.568-9.316.002-2.566-2.568-2.566-6.748-.002-9.314 1.244-1.242 2.898-1.926 4.658-1.926 1.762 0 3.416.684 4.658 1.924l4.658 4.658z"/><path d="m176.528 153.873c0-1.061-.422-2.078-1.172-2.828l-16.977-16.971c-1.562-1.562-4.094-1.562-5.656 0l-16.975 16.973c-.75.75-1.172 1.768-1.172 2.828s.422 2.078 1.172 2.828l16.975 16.975c.781.781 1.805 1.172 2.828 1.172s2.047-.391 2.828-1.172l16.977-16.977c.75-.75 1.172-1.767 1.172-2.828zm-20.977 11.32-11.316-11.318 11.316-11.316 11.32 11.314z"/><path d="m248.676 109.623c-5.012-5.016-11.688-7.779-18.797-7.779-.004 0-.004 0-.004 0-7.109.002-13.785 2.766-18.797 7.779l-4.637 4.637-11.293-11.293 5.746-5.746c10.363-10.365 9.914-27.682-1-38.602-10.918-10.906-28.23-11.359-38.598-.996l-1.746 1.746v-7.977l10.141-10.142c1.562-1.562 1.562-4.094 0-5.656l-11.312-11.314c-1.5-1.5-4.156-1.5-5.656 0l-11.312 11.314c-1.562 1.562-1.562 4.094 0 5.656l10.141 10.142v7.977l-1.746-1.746c-5.043-5.047-11.82-7.662-19.211-7.482-7.25.221-14.135 3.232-19.385 8.482-5.18 5.176-8.193 11.959-8.486 19.096-.305 7.445 2.354 14.371 7.486 19.502l5.746 5.744-10.404 10.404-3.746-3.746c-5.012-5.016-11.688-7.777-18.797-7.779 0 0 0 0-.002 0-7.107 0-13.783 2.764-18.797 7.779-5.016 5.014-7.777 11.691-7.777 18.799s2.762 13.785 7.777 18.799c5.012 5.016 11.688 7.777 18.797 7.777s13.787-2.762 18.799-7.777l3.746-3.746 10.398 10.398-5.74 5.74c-5.133 5.131-7.791 12.057-7.486 19.502.293 7.137 3.307 13.92 8.486 19.096 5.176 5.18 11.959 8.193 19.094 8.486 7.471.312 14.4-2.383 19.502-7.486l1.746-1.746v12.118c-4.646 1.656-8 6.055-8 11.263 0 2.314.689 4.458 1.828 6.293-8.156 3.838-13.828 12.111-13.828 21.707v24c0 2.209 1.791 4 4 4h40c2.211 0 4-1.791 4-4v-24c0-9.595-5.672-17.869-13.828-21.707 1.14-1.835 1.828-3.979 1.828-6.293 0-5.208-3.354-9.606-8-11.263v-12.118l1.746 1.746c4.84 4.842 11.359 7.51 18.359 7.51.379 0 .758-.008 1.141-.023 7.133-.291 13.918-3.305 19.098-8.486 10.914-10.92 11.363-28.232 1-38.596l-5.742-5.742 11.289-11.289 4.637 4.637c5.012 5.016 11.688 7.777 18.797 7.777s13.789-2.762 18.801-7.777c10.362-10.367 10.362-27.234-.002-37.599zm-93.125-76.857 5.656 5.656-5.656 5.656-5.656-5.656zm16 216.08v20h-4v-8c0-2.209-1.789-4-4-4s-4 1.791-4 4v8h-8v-20.424c0-2.209-1.789-4-4-4s-4 1.791-4 4v20.424h-4v-20c0-8.822 7.176-16 16-16s16 7.177 16 16zm-20-28c0-2.205 1.793-4 4-4s4 1.795 4 4-1.793 4-4 4-4-1.795-4-4zm91.469-79.282c-3.504 3.504-8.172 5.434-13.145 5.434s-9.637-1.93-13.141-5.434l-7.465-7.467c-.75-.75-1.766-1.172-2.828-1.172s-2.078.422-2.828 1.172l-16.945 16.947c-1.562 1.562-1.562 4.094 0 5.656l8.57 8.57c7.246 7.244 6.797 19.484-1 27.283-3.758 3.756-8.648 5.941-13.773 6.15l-.809.016c-4.863 0-9.371-1.834-12.703-5.166l-8.574-8.574c-.781-.781-1.805-1.172-2.828-1.172s-2.047.391-2.828 1.172l-8.574 8.574c-3.33 3.332-7.842 5.166-12.701 5.166l-.814-.016c-5.125-.211-10.014-2.395-13.768-6.15-3.756-3.754-5.939-8.643-6.15-13.768-.211-5.184 1.617-9.984 5.15-13.518l8.568-8.568c1.562-1.562 1.562-4.094 0-5.656l-16.055-16.055c-1.562-1.562-4.094-1.562-5.656 0l-6.574 6.574c-3.504 3.504-8.17 5.434-13.143 5.434-4.971 0-9.637-1.93-13.141-5.434-7.246-7.246-7.246-19.039 0-26.285 3.504-3.504 8.17-5.436 13.141-5.436h.002c4.971.002 9.637 1.932 13.141 5.436l6.574 6.574c1.562 1.562 4.094 1.562 5.656 0l16.061-16.061c.75-.75 1.172-1.768 1.172-2.828s-.422-2.078-1.172-2.828l-8.574-8.572c-3.533-3.533-5.361-8.334-5.15-13.518.211-5.125 2.395-10.014 6.15-13.768 3.803-3.803 8.766-5.984 13.971-6.143 5.133-.182 9.842 1.672 13.312 5.143l8.574 8.574c1.562 1.562 4.094 1.562 5.656 0l8.574-8.574c7.242-7.242 19.477-6.799 27.285.998 7.797 7.799 8.246 20.041 1 27.287l-8.574 8.574c-1.562 1.562-1.562 4.094 0 5.656l16.949 16.951c1.5 1.5 4.156 1.5 5.656 0l7.465-7.467c3.504-3.504 8.168-5.434 13.141-5.436h.004c4.969 0 9.637 1.932 13.141 5.436 7.246 7.25 7.246 19.043 0 26.289z"/><path d="m130.096 98.48c1.023 0 2.047-.391 2.828-1.172l16.971-16.971c1.562-1.562 1.562-4.094 0-5.656l-8.574-8.574c-5.68-5.688-15.383-5.236-21.627 1-6.236 6.238-6.686 15.941-1 21.629l8.574 8.572c.781.782 1.805 1.172 2.828 1.172zm-4.746-25.716c3.119-3.119 7.748-3.564 10.314-1l5.746 5.746-11.314 11.314-5.746-5.744c-2.566-2.568-2.117-7.197 1-10.316z"/><path d="m134.581 102.965c0 1.061.422 2.078 1.172 2.828l16.971 16.969c.781.781 1.805 1.172 2.828 1.172s2.047-.391 2.828-1.172l16.969-16.969c1.562-1.562 1.562-4.094 0-5.656l-16.969-16.971c-.75-.75-1.766-1.172-2.828-1.172s-2.078.422-2.828 1.172l-16.971 16.971c-.751.75-1.172 1.767-1.172 2.828zm20.97-11.315 11.312 11.314-11.312 11.312-11.312-11.312z"/><path d="m183.836 108.623c-1.562-1.562-4.094-1.562-5.656 0l-16.973 16.967c-.75.75-1.172 1.768-1.172 2.828s.422 2.078 1.172 2.828l16.977 16.971c.781.781 1.805 1.172 2.828 1.172s2.047-.391 2.828-1.172l16.965-16.967c1.562-1.562 1.562-4.094 0-5.656zm-2.824 31.109-11.32-11.314 11.316-11.311 11.312 11.314z"/><path d="m130.09 149.391c1.023 0 2.047-.391 2.828-1.172l16.977-16.973c.75-.75 1.172-1.768 1.172-2.828s-.422-2.078-1.172-2.828l-16.971-16.969c-1.562-1.562-4.094-1.562-5.656 0l-16.973 16.973c-1.562 1.562-1.562 4.094 0 5.656l16.967 16.969c.781.781 1.805 1.172 2.828 1.172zm.006-32.286 11.312 11.312-11.318 11.316-11.311-11.312z"/><path d="m178.184 159.529-16.973 16.973c-.75.75-1.172 1.768-1.172 2.828s.422 2.078 1.172 2.828l8.57 8.566c2.559 2.564 6.117 4 9.824 4 .23 0 .465-.006.699-.018 4.117-.168 8.059-1.938 11.105-4.982 6.234-6.238 6.684-15.938 1-21.625l-8.57-8.57c-1.561-1.562-4.092-1.562-5.655 0zm7.57 24.539c-1.621 1.621-3.672 2.561-5.809 2.646-1.809.104-3.359-.498-4.508-1.645l-5.742-5.74 11.316-11.316 5.742 5.742c2.568 2.567 2.119 7.194-.999 10.313z"/><path d="m132.92 159.531c-1.562-1.562-4.094-1.562-5.656 0l-8.57 8.568c-2.732 2.732-4.146 6.469-3.98 10.525.168 4.115 1.936 8.059 4.98 11.102 3.043 3.045 6.986 4.812 11.105 4.98.211.01.418.014.625.014 3.814 0 7.309-1.406 9.895-3.994l8.572-8.57c.75-.75 1.172-1.768 1.172-2.828s-.422-2.078-1.172-2.828zm2.743 25.539s-.002 0-.002.002c-1.162 1.162-2.74 1.719-4.537 1.643-2.104-.086-4.154-1.025-5.773-2.645s-2.559-3.67-2.645-5.771c-.072-1.797.512-3.41 1.645-4.543l5.742-5.74 11.312 11.312z"/><path d="m219.563 118.107-7.484 7.486c-1.562 1.562-1.562 4.094 0 5.656l7.484 7.488c2.844 2.842 6.578 4.262 10.316 4.262 3.734 0 7.469-1.42 10.312-4.262 0-.002 0-.002 0-.002 5.684-5.688 5.684-14.941 0-20.629-5.687-5.686-14.941-5.682-20.628.001zm14.973 14.973c-2.566 2.566-6.742 2.57-9.316 0l-4.656-4.658 4.656-4.656c2.57-2.57 6.746-2.568 9.316-.002 2.566 2.568 2.566 6.748 0 9.316z"/><path d="m178.176 97.309c.781.781 1.805 1.172 2.828 1.172s2.047-.391 2.828-1.172l8.578-8.574c5.684-5.684 5.238-15.385-1-21.627-2.949-2.955-6.777-4.719-10.773-4.969-4.184-.24-8.039 1.15-10.855 3.967v.002l-8.574 8.574c-1.562 1.562-1.562 4.094 0 5.656zm-2.738-25.545c1.176-1.174 2.84-1.76 4.703-1.641 2.047.129 4.039 1.066 5.613 2.641 3.117 3.121 3.566 7.748 1 10.314l-5.75 5.746-11.312-11.314z"/><path d="m248.508 208.474c-2.362 0-4.276 1.915-4.276 4.277s1.915 4.276 4.276 4.276 4.277-1.915 4.277-4.276-1.915-4.277-4.277-4.277z"/><path d="m196.508 220.474c-2.362 0-4.276 1.915-4.276 4.277s1.915 4.276 4.276 4.276 4.277-1.915 4.277-4.276-1.915-4.277-4.277-4.277z"/></g></svg>