<?xml version="1.0" encoding="iso-8859-1"?>
<!-- Generator: Adobe Illustrator 19.0.0, SVG Export Plug-In . SVG Version: 6.00 Build 0)  -->
<svg version="1.1" id="Capa_1" xmlns="http://www.w3.org/2000/svg" xmlns:xlink="http://www.w3.org/1999/xlink" x="0px" y="0px"
	 viewBox="0 0 512 512" style="enable-background:new 0 0 512 512;" xml:space="preserve">
<g>
	<g>
		<path d="M0,0v512h130.5V131.498h251V512H512V0H0z M30,30h60.862L30,75.9V30z M30,175.377l68.359,81.735L30,336.196V175.377z
			 M30,482v-63.812L83.37,482H30z M100.5,455.719l-65.975-78.883L100.5,300.51V455.719z M100.5,212.909l-68.088-81.411H100.5
			V212.909z M45.881,101.498L135.5,33.91l88.296,67.588H45.881z M180.138,30h151.724L256,87.213L180.138,30z M288.204,101.498
			l88.622-67.834c20.362,15.929,40.798,31.23,60.639,46.086c9.53,7.135,19.241,14.416,28.93,21.748H288.204z M477.617,131.498
			L411.5,212.234v-80.736H477.617z M411.5,301.16l64.049,75.674l-64.049,78.21V301.16z M482,482h-53.799L482,416.306V482z
			 M482,338.02l-68.477-80.906L482,173.496V338.02z M482,75.681c-8.908-6.729-17.808-13.397-26.553-19.945
			C444.191,47.308,432.742,38.735,421.244,30H482V75.681z"/>
	</g>
</g>
<g>
</g>
<g>
</g>
<g>
</g>
<g>
</g>
<g>
</g>
<g>
</g>
<g>
</g>
<g>
</g>
<g>
</g>
<g>
</g>
<g>
</g>
<g>
</g>
<g>
</g>
<g>
</g>
<g>
</g>
</svg>
